# xmcd
#
# Track frame offsets:
#	150
#	14307
#	27987
#	41902
#	54685
#	69650
#	84182
#	97600
#	109577
#	121457
#	134147
#	145772
#	159667
#	170665
#	183055
#
# Disc length: 2594 seconds
#
# Revision: 0
# Processed by: cddbd v1.5.2PL0 Copyright (c) Steve Scherf et al.
# Submitted via: EasyCDDAExtractor 11.5.3.1
#
DISCID=c80a200f
DTITLE=Willy Staquet - Tangos A La Carte
DYEAR=1900
DGENRE=Accordéon
TTITLE0=La Paloma
TTITLE1=Jalousie
TTITLE2=Olé Guapa
TTITLE3=Tango Des Rose
TTITLE4=Adios Pampa Mia
TTITLE5=Violetta
TTITLE6=Le Tango Du Rêve
TTITLE7=Le Petit Pâtissier
TTITLE8=C'était Un Musicien
TTITLE9=Il Pleut Sur La Route
TTITLE10=Les Pêcheurs De Perles
TTITLE11=Ciel Bleu
TTITLE12=Ce N'est Que Votre Main Madame
TTITLE13=Balalaïka
TTITLE14=Le Tango Des Fauvettes, Le Secret De Tes Caresses
EXTD=
EXTT0=
EXTT1=
EXTT2=
EXTT3=
EXTT4=
EXTT5=
EXTT6=
EXTT7=
EXTT8=
EXTT9=
EXTT10=
EXTT11=
EXTT12=
EXTT13=
EXTT14=
PLAYORDER=
